<svg xmlns="http://www.w3.org/2000/svg" width="1024" height="1024" viewBox="0 0 1024 1024">
<title>GitTurtle — vector companion</title>
<rect x="64" y="64" width="896" height="896" rx="200" fill="#151D29"/>
<g transform="translate(200 188) scale(26)" fill="#7ADFB4">
  <path d="M10 5V3a2 2 0 0 1 4 0v2Z"/>
  <path d="M6.6 6.5C3.5 5.4 1.7 7.6 2 10l3.5-.8Zm10.8 0C20.5 5.4 22.3 7.6 22 10l-3.5-.8ZM6 16.3c-2.5 1.1-2.8 3.5-1.5 4.7l3.2-2.8Zm12 0c2.5 1.1 2.8 3.5 1.5 4.7l-3.2-2.8ZM10.6 20l1.4 3 1.4-3Z"/>
  <path fill-rule="evenodd" d="M12 4.5c4.3 0 6.8 3.8 6.8 8.1 0 4.8-2.7 8-6.8 8s-6.8-3.2-6.8-8C5.2 8.3 7.7 4.5 12 4.5Zm-1.7 3a1.7 1.7 0 1 0-.7 3.25v4.05a1.7 1.7 0 1 0 2.28 2.08l3.36-2.8a1.7 1.7 0 1 0-1.26-1.05l-3 2.5v-4.78a1.7 1.7 0 0 0-.68-3.25Z"/>
</g>
</svg>
